<?xml version="1.0" encoding="UTF-8"?><svg id="a" xmlns="http://www.w3.org/2000/svg" viewBox="0 0 388.8 72"><defs><style>.b{fill:#00b1ea;}.c{fill:#808184;}</style></defs><g><path class="b" d="M48.3542,60.1151l-3.039-10.9102h-15.3321l-2.9711,10.9102h-5.8711L35.093,12.0447h5.1802l14.02,48.0704h-5.939Zm-7.873-28.5235l-2.6943-10.6367h-.2769l-2.6938,10.5645-3.5206,12.5039h12.7061l-3.5205-12.4317Z"/><path class="b" d="M77.7956,60.1151V12.0447h5.8018V60.1151h-5.8018Z"/><path class="b" d="M131.9478,60.1151l-8.0126-21.1329h-8.0796v21.1329h-5.7325V12.0447h15.0567c7.8052,0,12.6391,4.9063,12.6391,13.4004,0,6.0078-2.6933,10.6368-8.2895,12.7051l8.7036,21.9649h-6.2852Zm-7.8051-42.8243h-8.2871v16.6465h8.4257c5.1114,0,7.733-3.3144,7.733-8.4922,0-5.3183-2.4849-8.1543-7.8716-8.1543Z"/><path class="c" d="M169.6722,60.1151c-7.3906,0-12.4336-3.2645-14.8496-8.3661l5.1094-2.9239c1.8652,3.1971,4.9063,5.7806,9.8105,5.7806,5.9395,0,8.2872-3.3318,8.2872-7.8889,0-5.0343-3.2461-6.8714-8.4942-8.5046-9.6035-2.8585-13.2637-6.123-13.2637-13.3329,0-7.6216,5.3887-12.9944,13.8848-12.9944,7.0449,0,11.3262,2.7932,13.3984,6.6001l-4.9023,3.3337c-1.7969-3.1971-4.4902-4.4898-8.7715-4.4898-5.3203,0-7.7383,3.3318-7.7383,7.5504,0,4.965,4.6973,6.4635,10.7071,8.366,8.2871,2.5892,11.1211,6.3963,11.1211,13.4715,0,8.1621-5.3184,13.3983-14.2989,13.3983Z"/><path class="c" d="M215.2014,17.2908V60.1151h-5.7285V17.2908h-10.9863v-5.2461h27.6953v5.2461h-10.9805Z"/><path class="c" d="M266.4784,60.1151l-8.0137-21.1329h-8.082v21.1329h-5.7344V12.0447h15.0606c7.8047,0,12.6367,4.9063,12.6367,13.4004,0,6.0078-2.6914,10.6368-8.2852,12.7051l8.7012,21.9649h-6.2832Zm-7.8105-42.8243h-8.2852v16.6465h8.4258c5.1113,0,7.7363-3.3144,7.7363-8.4922,0-5.3183-2.4844-8.1543-7.8769-8.1543Z"/><path class="c" d="M294.3035,60.1151V12.0447h5.7969V60.1151h-5.7969Z"/><path class="c" d="M339.513,40.7752h-8.2207v19.3399h-5.7285V12.0447h13.6758c8.8398,0,14.0195,4.7637,14.0195,14.4356,0,7.3906-3.8008,14.2949-13.7461,14.2949Zm-.416-23.3437h-7.8047v17.9589h7.8789c6.4199,0,8.2851-4.4199,8.2851-8.9785,0-5.5273-2.414-8.9804-8.3593-8.9804Z"/></g><path class="c" d="M376.7653,19.022c0,4.0473-3.1775,7.2243-7.3113,7.2243-4.0913,0-7.3553-3.177-7.3553-7.2243,0-3.9603,3.264-7.1371,7.3553-7.1371,4.1338,0,7.3113,3.1768,7.3113,7.1371Zm-12.8378,0c0,3.1768,2.3489,5.7007,5.5704,5.7007,3.1323,0,5.44-2.5239,5.44-5.6574,0-3.1762-2.3077-5.7439-5.4839-5.7439s-5.5264,2.5677-5.5264,5.7007Zm4.3945,3.7429h-1.6532v-7.1371c.6531-.1304,1.5669-.2175,2.7412-.2175,1.3487,0,1.9593,.2175,2.4806,.5219,.3924,.3046,.6971,.8705,.6971,1.5669,0,.7834-.6093,1.3926-1.4804,1.6532v.0872c.6969,.2614,1.088,.7834,1.306,1.7411,.2169,1.088,.3486,1.5229,.5214,1.7843h-1.7836c-.2182-.2614-.3484-.9145-.5652-1.7411-.1317-.7835-.5666-1.1312-1.4804-1.1312h-.7835v2.8723Zm.044-4.0475h.7834c.9138,0,1.6533-.3045,1.6533-1.0448,0-.6524-.4789-1.0873-1.5229-1.0873-.4349,0-.7395,.0432-.9138,.0865v2.0456Z"/></svg>